# xmcd
#
# Track frame offsets: 
#        150
#        16460
#        32200
#        46835
#        67805
#        83487
#        104850
#        121075
#        140822
#        156072
#        172080
#
# Disc length: 2531 seconds
#
# Revision: 0
# Processed by: cddbd v1.5.2PL0 Copyright (c) Steve Scherf et al.
# Submitted via: ExactAudioCopy v0.95b4
#
DISCID=8f09e10b
DTITLE=Nathalie Cote - Lovely Hearts Like Mine
DYEAR=1994
DGENRE=Country
TTITLE0=What Goes Around
TTITLE1=All I Want Is Your Broken Heart
TTITLE2=Your Good Girl's Gonna Go Bad
TTITLE3=Tell Him Goodbye
TTITLE4=Is She Really Going Out With Him
TTITLE5=Lonely Hearts Like Mine
TTITLE6=It Won't Do Him Good To Cry
TTITLE7=For Crying Out Loud
TTITLE8=You Make Me Lie
TTITLE9=I'm Never Gonna Say Goodbye
TTITLE10=Your Good Girl's Gonna Go Bad
EXTD=
EXTT0=
EXTT1=
EXTT2=
EXTT3=
EXTT4=
EXTT5=
EXTT6=
EXTT7=
EXTT8=
EXTT9=
EXTT10=
PLAYORDER=
